<svg width="60" height="60" viewBox="0 0 60 60" fill="none" xmlns="http://www.w3.org/2000/svg">
<rect x="0.5" y="0.5" width="59" height="59" rx="29.5" fill="#D10307" stroke="#D10307"/>
<path d="M21.04 39.676V39.929H20.05C20.072 39.676 20.083 39.302 20.083 38.785V37.047C20.083 36.695 20.072 36.266 20.05 36.068C20.402 36.09 20.754 36.09 21.26 36.09H23.13C23.592 36.09 23.9 36.09 24.23 36.068C24.219 36.266 24.197 36.695 24.197 37.047V42.613C24.197 43.075 24.208 43.746 24.241 44.736V44.857C24.241 45.319 24.142 45.528 23.867 45.682C23.548 45.847 23.196 45.891 22.162 45.891C22.14 45.506 22.096 45.231 21.953 44.725C22.316 44.758 22.492 44.769 22.767 44.769C23.141 44.769 23.196 44.714 23.196 44.34V39.676H21.04ZM23.196 38.829V38.257H21.04V38.829H23.196ZM23.196 37.487V36.937H21.04V37.487H23.196ZM15.804 39.676V43.361C15.804 44.527 15.815 45.385 15.837 45.935H14.759C14.781 45.308 14.792 44.494 14.792 43.361V37.047C14.792 36.695 14.781 36.266 14.759 36.068C15.089 36.09 15.408 36.09 15.87 36.09H17.729C18.235 36.09 18.587 36.09 18.95 36.068C18.928 36.266 18.917 36.695 18.917 37.047V38.785C18.917 39.302 18.928 39.676 18.95 39.929H17.949V39.676H15.804ZM17.949 38.829V38.257H15.804V38.829H17.949ZM17.949 37.487V36.937H15.804V37.487H17.949ZM19.621 44.043V42.701C18.84 43.647 17.982 44.307 16.629 45.044C16.332 44.494 16.31 44.461 16.079 44.197C17.465 43.482 18.224 42.943 18.994 42.03H17.454C17.135 42.03 16.673 42.041 16.365 42.052V41.084C16.673 41.095 17.135 41.106 17.454 41.106H19.61C19.599 40.611 19.577 40.204 19.544 40.072L20.699 40.149C20.798 40.16 20.864 40.204 20.864 40.27C20.864 40.336 20.798 40.391 20.666 40.479C20.655 40.633 20.644 40.677 20.644 41.106H21.535C21.865 41.106 22.327 41.095 22.635 41.084V42.052C22.327 42.041 21.865 42.03 21.535 42.03H20.633V43.273C20.633 43.449 20.644 43.977 20.666 44.318V44.45C20.666 45.385 20.303 45.583 18.587 45.583C18.576 45.066 18.543 44.89 18.378 44.461C18.73 44.494 18.884 44.505 19.082 44.505C19.588 44.505 19.621 44.472 19.621 44.043ZM31.6 37.377L32.095 36.794C32.623 37.124 32.975 37.399 33.514 37.927L32.953 38.532C32.436 37.993 32.172 37.762 31.6 37.377ZM30.709 38.389L31.204 37.817C31.743 38.147 32.073 38.411 32.623 38.939L32.062 39.555C31.556 39.005 31.303 38.785 30.709 38.389ZM27.717 36.618L28.971 36.706C29.092 36.706 29.18 36.772 29.18 36.86C29.18 36.937 29.136 36.981 28.993 37.08C28.949 37.982 28.828 42.393 28.828 42.965C28.828 43.878 29.158 44.208 30.082 44.208C30.731 44.208 31.358 44.021 32.018 43.636C32.821 43.174 33.272 42.756 34.053 41.722C34.229 42.129 34.339 42.283 34.768 42.778C33.921 43.779 33.426 44.208 32.634 44.67C31.776 45.154 30.863 45.407 29.95 45.407C29.081 45.407 28.399 45.143 28.036 44.659C27.761 44.296 27.629 43.768 27.629 43.009C27.629 42.712 27.64 42.459 27.695 41.051C27.728 40.083 27.75 38.994 27.75 37.894C27.75 37.399 27.739 37.003 27.717 36.618ZM38.97 38.158L38.64 36.97C39.586 36.915 41.445 36.629 42.501 36.387L42.655 36.288L43.458 36.992C43.546 37.069 43.568 37.102 43.568 37.146C43.568 37.212 43.513 37.245 43.414 37.278L43.315 37.311C42.38 38.477 41.907 39.016 40.829 40.16C41.478 39.896 41.863 39.808 42.413 39.808C44.063 39.808 45.207 40.809 45.207 42.283C45.207 43.152 44.855 43.9 44.206 44.461C43.524 45.044 42.633 45.319 41.445 45.319C39.883 45.319 39.014 44.791 39.014 43.834C39.014 43.075 39.652 42.503 40.499 42.503C41.137 42.503 41.775 42.822 42.16 43.339C42.314 43.559 42.391 43.713 42.589 44.208C43.018 44.076 43.227 43.955 43.469 43.691C43.788 43.339 43.975 42.844 43.975 42.338C43.975 41.359 43.304 40.809 42.094 40.809C41.214 40.809 40.411 41.128 39.377 41.898C39.091 42.118 38.882 42.283 38.409 42.712L37.639 41.722C38.871 40.82 39.971 39.709 41.896 37.443C41.016 37.652 40.884 37.685 40.367 37.806L39.751 37.96C39.564 38.004 39.113 38.114 38.97 38.158ZM41.478 44.373C41.269 43.669 40.983 43.394 40.499 43.394C40.18 43.394 39.971 43.559 39.971 43.801C39.971 44.164 40.422 44.406 41.104 44.406C41.236 44.406 41.247 44.406 41.478 44.373Z" fill="white"/>
<rect x="22.4141" y="13" width="24" height="2" rx="1" transform="rotate(45 22.4141 13)" fill="white"/>
<rect x="21" y="29.9707" width="24" height="2" rx="1" transform="rotate(-45 21 29.9707)" fill="white"/>
</svg>
