<svg width="60" height="60" viewBox="0 0 60 60" fill="none" xmlns="http://www.w3.org/2000/svg">
<rect x="0.5" y="0.5" width="59" height="59" rx="29.5" fill="#D10307" stroke="#D10307"/>
<rect x="18" y="15" width="24" height="2" rx="1" fill="white"/>
<rect x="18" y="24" width="24" height="2" rx="1" fill="white"/>
<path d="M16.547 42.261L15.634 43.24C15.029 42.514 14.655 42.129 14.105 41.667C13.588 42.459 12.939 43.163 12.048 43.911C11.311 44.527 11.014 44.747 9.914 45.429C9.727 45.066 9.419 44.692 9.144 44.494C10.992 43.372 12.257 42.239 13.115 40.963C13.038 40.919 12.994 40.897 12.862 40.809C12.257 40.424 12.103 40.347 11.036 39.852L11.619 38.862C12.18 39.06 13.049 39.5 13.731 39.918C14.204 39.06 14.545 38.279 14.776 37.487C15.04 36.574 15.04 36.574 15.084 36.387L16.206 36.86C16.294 36.893 16.349 36.948 16.349 37.014C16.349 37.091 16.283 37.157 16.118 37.212C15.37 39.412 15.282 39.621 14.754 40.6C15.491 41.15 15.931 41.568 16.547 42.261ZM28.79 42.426V43.669C28.383 43.658 27.668 43.647 27.25 43.647H21.739C21.266 43.647 20.65 43.658 20.199 43.669V42.426C20.617 42.448 21.244 42.459 21.739 42.459H27.25C27.69 42.459 28.405 42.448 28.79 42.426ZM27.426 38.4V39.61C27.118 39.599 26.656 39.588 26.326 39.588H22.685C22.366 39.588 21.904 39.599 21.585 39.61V38.4C21.904 38.411 22.366 38.422 22.685 38.422H26.326C26.656 38.422 27.118 38.411 27.426 38.4ZM36.369 43.141L36.501 40.82H33.938C33.674 40.82 33.091 40.831 32.827 40.842V39.786C33.234 39.808 33.564 39.808 33.938 39.808H36.875C37.205 39.808 37.458 39.808 37.689 39.786C37.656 40.05 37.601 40.842 37.579 41.271L37.491 43.141H38.041C38.536 43.141 39.02 43.13 39.504 43.108V44.175C39.086 44.153 38.47 44.142 38.041 44.142H32.937C32.574 44.142 32.079 44.153 31.474 44.175V43.108C31.958 43.13 32.442 43.141 32.937 43.141H36.369ZM50.768 40.215V41.392C50.251 41.381 49.382 41.359 48.799 41.359H44.19C43.651 41.359 42.694 41.381 42.221 41.392V40.215C42.672 40.226 43.629 40.248 44.19 40.248H48.799C49.404 40.248 50.273 40.237 50.768 40.215Z" fill="white"/>
</svg>
