<svg width="19" height="24" viewBox="0 0 19 24" fill="none" xmlns="http://www.w3.org/2000/svg">
<path d="M3.1517 6.28446H5.05064V4.38564C5.05219 3.81041 5.16706 3.24113 5.3887 2.71031C5.61034 2.17949 5.9344 1.69754 6.34235 1.292C6.74929 0.876932 7.23591 0.548519 7.77313 0.326528C8.31035 0.104537 8.88695 -0.00644001 9.46819 0.00028864C10.6356 0.0103806 11.7525 0.478167 12.5786 1.30307C13.4047 2.12797 13.8741 3.2441 13.8859 4.41148V6.3103H15.7847C15.9358 6.31639 16.08 6.37532 16.1921 6.47682C16.3042 6.57832 16.3772 6.71596 16.3982 6.86574L18.943 23.2575C18.9557 23.3425 18.9514 23.4291 18.9302 23.5123C18.9091 23.5956 18.8716 23.6738 18.8199 23.7423C18.7681 23.8109 18.7033 23.8684 18.6291 23.9116C18.5548 23.9548 18.4727 23.9827 18.3875 23.9938H0.613532C0.447899 23.9855 0.29177 23.9138 0.177548 23.7936C0.063325 23.6734 -0.000206918 23.5138 5.06315e-07 23.348V23.2253L2.51231 6.85927C2.54138 6.70734 2.62114 6.56974 2.73842 6.46888C2.8557 6.36801 3.00359 6.30984 3.15817 6.30384L3.1517 6.28446ZM13.2336 8.18328C13.5762 8.18328 13.9048 8.31937 14.147 8.56161C14.3893 8.80385 14.5253 9.13241 14.5253 9.47499C14.5228 9.69931 14.4619 9.91912 14.3487 10.1128C14.2354 10.3064 14.0737 10.4673 13.8794 10.5794V10.7344C13.9022 11.3283 13.8049 11.9207 13.5932 12.4761C13.3816 13.0315 13.0601 13.5385 12.648 13.9667C12.2358 14.395 11.7414 14.7356 11.1945 14.9683C10.6476 15.201 10.0594 15.3209 9.46503 15.3209C8.87068 15.3209 8.28236 15.201 7.73545 14.9683C7.18854 14.7356 6.69427 14.395 6.28211 13.9667C5.86996 13.5385 5.54843 13.0315 5.33682 12.4761C5.12522 11.9207 5.02791 11.3283 5.05064 10.7344V10.5794C4.84269 10.4758 4.66653 10.3181 4.5407 10.1228C4.41487 9.92755 4.34395 9.70195 4.33556 9.46979C4.32717 9.23763 4.38151 9.0075 4.49292 8.80365C4.60434 8.5998 4.76871 8.42977 4.96864 8.31147C5.16858 8.19317 5.39669 8.13097 5.629 8.13144C5.86132 8.13191 6.08928 8.19503 6.28874 8.31413C6.48819 8.43324 6.65181 8.60392 6.76241 8.80822C6.873 9.01252 6.92641 9.24286 6.91709 9.47499C6.91863 9.6956 6.86364 9.91293 6.75736 10.1063C6.65108 10.2996 6.49711 10.4625 6.31002 10.5794V10.7344C6.30258 11.1497 6.38 11.5622 6.53771 11.9464C6.69542 12.3307 6.93004 12.6787 7.22709 12.9691C7.51924 13.2637 7.86752 13.4967 8.25137 13.6542C8.63523 13.8118 9.04682 13.8906 9.46172 13.8862C9.87688 13.8896 10.2886 13.8105 10.6729 13.6534C11.0572 13.4963 11.4064 13.2644 11.7003 12.9711C11.9942 12.6778 12.2269 12.3291 12.3848 11.9451C12.5427 11.5611 12.6226 11.1496 12.62 10.7344V10.5794C12.4231 10.4703 12.2591 10.3102 12.1454 10.1158C12.0318 9.9215 11.9727 9.70012 11.9742 9.47499C11.9741 9.13793 12.1056 8.81418 12.341 8.57285C12.5763 8.33151 12.8966 8.1917 13.2336 8.18328ZM11.7028 2.17682C11.1106 1.57664 10.3049 1.23531 9.46172 1.22741C9.04475 1.22862 8.63231 1.31324 8.24854 1.47629C7.86476 1.63934 7.51742 1.87752 7.22709 2.17682C6.93291 2.46393 6.70007 2.80769 6.54244 3.18733C6.38482 3.56697 6.30572 3.9746 6.31002 4.38564V6.28446H12.62V4.38564C12.6143 3.55789 12.2851 2.76518 11.7028 2.17682ZM15.2229 7.54388H3.66842L1.34343 22.715H17.5543L15.2229 7.54388Z" fill="white"/>
</svg>
