<svg width="19" height="22" viewBox="0 0 19 22" fill="none" xmlns="http://www.w3.org/2000/svg">
<path d="M17.4876 16.2156C17.2253 16.041 17.0117 15.8027 16.8669 15.5229C16.722 15.2431 16.6506 14.9311 16.6595 14.6161V9.2742C16.6521 7.43355 15.9394 5.66574 14.6682 4.33455C13.397 3.00336 11.6639 2.21006 9.82555 2.11788V0.373042C9.82641 0.323824 9.81734 0.274951 9.7989 0.229311C9.78045 0.183671 9.75301 0.142207 9.7182 0.1074C9.6834 0.072593 9.64194 0.0451401 9.5963 0.0266987C9.55066 0.00825743 9.50177 -0.000800657 9.45255 5.54928e-05C9.35363 5.54928e-05 9.25876 0.0393613 9.18881 0.10931C9.11886 0.179259 9.07957 0.274119 9.07957 0.373042V2.11788C7.35067 2.21693 5.7199 2.95347 4.50255 4.18511C3.79408 4.88605 3.23068 5.71972 2.84452 6.63849C2.45835 7.55725 2.257 8.5431 2.25198 9.53971V14.7616C2.24589 15.0783 2.16549 15.3892 2.01725 15.6692C1.86902 15.9492 1.65709 16.1905 1.39854 16.3736C0.937003 16.6836 0.56539 17.1098 0.321202 17.6093C0.0770137 18.1088 -0.0311169 18.6638 0.00772383 19.2184C0.0110042 19.3152 0.0517518 19.4068 0.121348 19.4741C0.190945 19.5413 0.283949 19.5788 0.38072 19.5788H6.70256C6.79263 20.2392 7.11894 20.8446 7.62106 21.2828C8.12318 21.7211 8.76709 21.9626 9.43359 21.9626C10.1001 21.9626 10.744 21.7211 11.2461 21.2828C11.7482 20.8446 12.0746 20.2392 12.1646 19.5788H18.4865C18.5832 19.5788 18.6762 19.5413 18.7458 19.4741C18.8154 19.4068 18.8562 19.3152 18.8595 19.2184C18.9297 18.6401 18.8388 18.0536 18.5967 17.5237C18.3546 16.9938 17.9708 16.5411 17.4876 16.2156ZM9.45255 21.2161C8.98162 21.2142 8.52603 21.0485 8.16387 20.7474C7.8017 20.4464 7.55552 20.0288 7.4675 19.5662H11.4376C11.3496 20.0288 11.1034 20.4464 10.7412 20.7474C10.3791 21.0485 9.92349 21.2142 9.45255 21.2161ZM0.772671 18.8202C0.798015 18.449 0.908769 18.0887 1.09629 17.7674C1.2838 17.4461 1.54302 17.1725 1.85371 16.9679C2.2072 16.7148 2.49613 16.382 2.69712 15.9965C2.89811 15.611 3.0055 15.1836 3.0106 14.7489V9.50811C3.01621 8.60976 3.19888 7.72133 3.54818 6.89365C3.89747 6.06598 4.40653 5.31529 5.04623 4.68454C5.62284 4.09511 6.3112 3.62659 7.07104 3.30637C7.83088 2.98614 8.64696 2.82065 9.47152 2.81959H9.53474C11.2374 2.83621 12.8649 3.52299 14.0648 4.73113C15.2646 5.93927 15.9402 7.57149 15.9451 9.2742V14.6161C15.9361 15.0581 16.0393 15.4952 16.2449 15.8865C16.4505 16.2778 16.7519 16.6107 17.1209 16.8541C17.4561 17.0586 17.7309 17.3483 17.9175 17.6937C18.1041 18.0391 18.1957 18.4278 18.183 18.8202H0.772671Z" fill="white"/>
</svg>
