<svg width="40" height="45" viewBox="0 0 40 45" fill="none" xmlns="http://www.w3.org/2000/svg">
<path d="M3.17 37.74V38.21H2.08C2.1 37.84 2.11 37.25 2.11 36.46V34.35C2.1 33.08 2.1 33.08 2.08 32.76C2.35 32.77 2.59 32.78 2.93 32.78H7.13C7.47 32.78 7.71 32.77 7.98 32.76C7.96 33.08 7.95 33.75 7.95 34.35V36.46C7.95 37.29 7.96 37.83 7.98 38.21H6.89V37.74H3.17ZM3.17 36.76H6.89V33.76H3.17V36.76ZM18.22 30.94L18.66 30.42C19.13 30.71 19.44 30.95 19.92 31.42L19.43 31.97C18.96 31.48 18.74 31.29 18.22 30.94ZM14.71 31.09L15.65 31.52C15.78 31.58 15.79 31.59 15.79 31.65C15.79 31.72 15.76 31.75 15.57 31.82C15.49 31.98 15.35 32.23 15.15 32.58H17.12L17.28 32.4L18.07 33.06C18.19 33.16 18.2 33.17 18.2 33.23C18.2 33.31 18.16 33.34 17.96 33.43C17.23 35.43 16.51 36.58 15.28 37.69C14.64 38.27 14.09 38.65 12.85 39.38C12.64 38.97 12.56 38.86 12.15 38.51C14.7 37.17 15.95 35.83 16.8 33.53H14.6C14.01 34.4 13.17 35.27 12.28 35.95C12.02 35.56 11.99 35.53 11.55 35.16C12.5 34.49 13.25 33.73 13.84 32.82C14.28 32.14 14.54 31.62 14.71 31.09ZM17.44 31.84L17.88 31.33C18.35 31.62 18.66 31.86 19.15 32.33L18.65 32.88C18.18 32.38 17.96 32.19 17.44 31.84ZM25.69 33.95L25.92 34C26.03 34.03 26.07 34.06 26.07 34.13C26.07 34.2 26.03 34.24 25.87 34.32C25.86 34.9 25.86 35.37 25.86 35.75V37.76C25.86 38.55 25.86 39.02 25.87 39.51H24.7C24.75 39.1 24.77 38.55 24.77 37.76V36.05C24.77 35.75 24.77 35.43 24.76 34.84C23.62 35.93 23.05 36.39 21.72 37.26C21.4 36.74 21.4 36.74 21.05 36.39C23.76 34.69 25.36 33.14 26.53 31.05L27.49 31.49C27.56 31.52 27.6 31.57 27.6 31.62C27.6 31.69 27.55 31.73 27.41 31.78C26.87 32.58 26.18 33.46 25.69 33.95ZM31.5 33.02L32.16 32.19C33.2 32.73 33.58 33.01 34.27 33.77L33.48 34.64C32.76 33.84 32.24 33.42 31.5 33.02ZM32.43 38.78L31.78 37.83C33.29 37.19 34.15 36.7 35.29 35.84C36.62 34.82 37.4 34.03 38.43 32.63C38.63 32.98 38.8 33.2 39.12 33.58C37.8 35.17 37.06 35.9 35.89 36.78C34.91 37.52 34.17 37.97 32.75 38.69C32.71 38.83 32.67 38.9 32.6 38.9C32.55 38.9 32.47 38.85 32.43 38.78Z" fill="#D10307"/>
<g clip-path="url(#clip0_48_3430)">
<path d="M18.7367 2.06587e-05C19.5145 -0.000852691 20.2847 0.151656 21.0034 0.448872C21.7221 0.746088 22.3751 1.18214 22.925 1.73207C23.4749 2.282 23.911 2.93502 24.2082 3.6537C24.5054 4.37239 24.658 5.14265 24.6571 5.92036C24.6577 6.69408 24.5049 7.46025 24.2076 8.17455C23.9102 8.88885 23.4742 9.53712 22.9248 10.0819C22.4331 10.58 21.8552 10.9847 21.219 11.2766C22.8809 11.7046 24.395 12.5764 25.5996 13.7987C26.5068 14.6967 27.2273 15.7655 27.7194 16.9434C28.2115 18.1213 28.4655 19.385 28.4668 20.6615V21.8562C28.4449 22.4264 28.2077 22.9671 27.8031 23.3695C27.4021 23.7718 26.8579 23.9986 26.2898 24H11.1438C10.5758 23.9986 10.0315 23.7718 9.63054 23.3695L9.59735 23.3098C9.40712 23.1186 9.25644 22.8919 9.15394 22.6425C9.05144 22.3931 8.99913 22.1259 9.00001 21.8562V20.6615C9.01071 18.5186 9.72613 16.4387 11.0359 14.7427C12.3458 13.0466 14.1772 11.8287 16.2478 11.2766C15.6117 10.9847 15.0337 10.58 14.542 10.0819C13.7156 9.25458 13.1533 8.20058 12.9263 7.05343C12.6994 5.90628 12.8181 4.71757 13.2673 3.63791C13.7165 2.55824 14.476 1.63621 15.4497 0.988588C16.4234 0.340967 17.5674 -0.00307125 18.7367 2.06587e-05ZM24.7102 14.708C23.5281 13.5348 22.0254 12.7375 20.3913 12.4164C18.7571 12.0952 17.0645 12.2646 15.5264 12.9031C13.9882 13.5416 12.6733 14.6208 11.7471 16.0049C10.8208 17.389 10.3246 19.016 10.3208 20.6814V21.8761C10.3257 22.0859 10.4031 22.2876 10.5398 22.4469C10.7112 22.5804 10.9201 22.657 11.1372 22.6659H26.323C26.5404 22.6583 26.7496 22.5816 26.9204 22.4469C27.0805 22.2865 27.1711 22.0696 27.1726 21.8429V20.6482C27.1728 19.5375 26.9529 18.4378 26.5257 17.4125C26.0985 16.3872 25.4724 15.4568 24.6836 14.6748L24.7102 14.708ZM22.0553 2.64824C21.1818 1.79237 20.0061 1.3154 18.7832 1.32081C17.5591 1.33305 16.3892 1.82794 15.528 2.69791C14.6667 3.56788 14.1836 4.74264 14.1836 5.96683C14.2074 7.16694 14.6947 8.31126 15.5435 9.16003C16.3923 10.0088 17.5366 10.4961 18.7367 10.5199C19.343 10.5269 19.9445 10.4132 20.5063 10.1853C21.0681 9.9574 21.5789 9.61988 22.0089 9.19248C22.8583 8.32554 23.3347 7.16061 23.3363 5.9469C23.3353 4.72523 22.8593 3.55183 22.0089 2.67478L22.0553 2.64824Z" fill="#D10307"/>
</g>
<defs>
<clipPath id="clip0_48_3430">
<rect width="19.4668" height="24" fill="white" transform="translate(9)"/>
</clipPath>
</defs>
</svg>
