<svg width="30" height="45" viewBox="0 0 30 45" fill="none" xmlns="http://www.w3.org/2000/svg">
<path d="M5.28 33.13L7.46 33.05L7.61 32.86L8.34 33.5C8.41 33.56 8.43 33.61 8.43 33.67C8.43 33.76 8.39 33.8 8.21 33.86C8.08 35.86 7.85 37.11 7.49 37.86C7.19 38.49 6.8 38.69 5.85 38.69C5.77 38.69 5.76 38.69 5.52 38.68C5.32 38.68 5.24 38.68 5 38.67C4.97 38.34 4.88 37.89 4.77 37.55C5.21 37.61 5.48 37.63 5.7 37.63C6.27 37.63 6.46 37.51 6.67 37C6.92 36.38 7.1 35.34 7.19 33.98L5.19 34.07C5.09 34.82 4.78 35.72 4.4 36.36C3.88 37.25 3.15 37.99 1.89 38.88C1.71 38.53 1.46 38.21 1.24 38.02C2.37 37.27 3.08 36.58 3.55 35.74C3.84 35.25 4.06 34.61 4.12 34.1C2.49 34.16 2.38 34.16 1.44 34.22L1.39 33.18H1.7C3.08 33.18 3.69 33.18 4.21 33.16C4.27 32.59 4.31 31.83 4.31 31.27V31.04L5.41 31.15C5.53 31.16 5.59 31.21 5.59 31.29C5.59 31.37 5.54 31.43 5.4 31.51C5.37 31.92 5.29 33.03 5.28 33.13ZM18.88 34.4V35.47C18.41 35.46 17.62 35.44 17.09 35.44H12.9C12.41 35.44 11.54 35.46 11.11 35.47V34.4C11.52 34.41 12.39 34.43 12.9 34.43H17.09C17.64 34.43 18.43 34.42 18.88 34.4ZM24.81 32.96V33.75C26.15 34.24 26.95 34.64 27.94 35.28L27.31 36.23C26.54 35.65 25.77 35.22 24.81 34.83V36.96C24.81 37.9 24.82 38.49 24.83 39H23.64C23.7 38.51 23.73 37.86 23.73 36.96V32.96C23.73 31.82 23.72 31.19 23.69 30.88L24.86 30.95C24.96 30.95 25.02 30.99 25.02 31.05C25.02 31.11 24.96 31.17 24.83 31.24C24.81 31.9 24.81 32.02 24.81 32.96Z" fill="#D10307"/>
<g clip-path="url(#clip0_48_3436)">
<path d="M7.15768 6.55985H9.05662V4.66103C9.05817 4.0858 9.17305 3.51652 9.39468 2.9857C9.61632 2.45488 9.94038 1.97294 10.3483 1.56739C10.7553 1.15232 11.2419 0.823909 11.7791 0.601918C12.3163 0.379927 12.8929 0.268951 13.4742 0.275679C14.6416 0.285771 15.7584 0.753557 16.5846 1.57846C17.4107 2.40336 17.8801 3.51949 17.8919 4.68687V6.58569H19.7907C19.9418 6.59178 20.086 6.65071 20.1981 6.75221C20.3102 6.85371 20.3831 6.99136 20.4042 7.14113L22.949 23.5329C22.9617 23.6179 22.9573 23.7045 22.9362 23.7877C22.9151 23.871 22.8776 23.9492 22.8258 24.0177C22.7741 24.0863 22.7093 24.1438 22.635 24.187C22.5608 24.2302 22.4786 24.2581 22.3935 24.2692H4.61951C4.45388 24.2609 4.29775 24.1892 4.18353 24.069C4.06931 23.9488 4.00577 23.7892 4.00598 23.6234V23.5007L6.51829 7.13466C6.54736 6.98273 6.62712 6.84513 6.7444 6.74427C6.86169 6.64341 7.00958 6.58523 7.16415 6.57923L7.15768 6.55985ZM17.2396 8.45867C17.5821 8.45867 17.9108 8.59476 18.153 8.837C18.3952 9.07924 18.5313 9.4078 18.5313 9.75038C18.5288 9.9747 18.4679 10.1945 18.3547 10.3882C18.2414 10.5818 18.0797 10.7426 17.8854 10.8548V11.0098C17.9081 11.6037 17.8108 12.1961 17.5992 12.7515C17.3876 13.3069 17.0661 13.8139 16.6539 14.2421C16.2418 14.6704 15.7474 15.011 15.2004 15.2437C14.6535 15.4764 14.0654 15.5963 13.471 15.5963C12.8767 15.5963 12.2883 15.4764 11.7414 15.2437C11.1945 15.011 10.7003 14.6704 10.2881 14.2421C9.87594 13.8139 9.55442 13.3069 9.34281 12.7515C9.1312 12.1961 9.0339 11.6037 9.05662 11.0098V10.8548C8.84867 10.7512 8.67252 10.5935 8.54668 10.3982C8.42085 10.2029 8.34993 9.97734 8.34154 9.74518C8.33315 9.51302 8.38749 9.28289 8.4989 9.07904C8.61032 8.87519 8.77469 8.70516 8.97462 8.58686C9.17456 8.46856 9.40268 8.40636 9.63499 8.40683C9.8673 8.4073 10.0953 8.47042 10.2947 8.58952C10.4942 8.70863 10.6578 8.87931 10.7684 9.08361C10.879 9.28791 10.9324 9.51826 10.9231 9.75038C10.9246 9.97099 10.8696 10.1883 10.7633 10.3817C10.6571 10.575 10.5031 10.7379 10.316 10.8548V11.0098C10.3086 11.4251 10.386 11.8376 10.5437 12.2218C10.7014 12.6061 10.936 12.9541 11.2331 13.2445C11.5252 13.5391 11.8735 13.7721 12.2574 13.9296C12.6412 14.0872 13.0528 14.166 13.4677 14.1616C13.8829 14.165 14.2945 14.0859 14.6788 13.9288C15.0631 13.7717 15.4124 13.5398 15.7063 13.2465C16.0002 12.9532 16.2329 12.6045 16.3908 12.2205C16.5487 11.8365 16.6286 11.425 16.626 11.0098V10.8548C16.4291 10.7457 16.2651 10.5856 16.1514 10.3912C16.0378 10.1969 15.9787 9.97551 15.9802 9.75038C15.9801 9.41332 16.1116 9.08957 16.3469 8.84824C16.5822 8.6069 16.9026 8.4671 17.2396 8.45867ZM15.7088 2.45221C15.1166 1.85204 14.3108 1.5107 13.4677 1.5028C13.0507 1.50401 12.6383 1.58863 12.2545 1.75168C11.8707 1.91473 11.5234 2.15291 11.2331 2.45221C10.9389 2.73932 10.7061 3.08308 10.5484 3.46272C10.3908 3.84236 10.3117 4.25 10.316 4.66103V6.55985H16.626V4.66103C16.6203 3.83328 16.2911 3.04057 15.7088 2.45221ZM19.2288 7.81927H7.6744L5.34941 22.9904H21.5603L19.2288 7.81927Z" fill="#D10307"/>
</g>
<defs>
<clipPath id="clip0_48_3436">
<rect width="18.9429" height="24" fill="white" transform="translate(4 0.25)"/>
</clipPath>
</defs>
</svg>
