<svg width="22" height="22" viewBox="0 0 22 22" fill="none" xmlns="http://www.w3.org/2000/svg">
<g clip-path="url(#clip0_534_688)">
<path d="M10.997 -0.0185547C8.81719 -0.0185547 6.6863 0.627836 4.87384 1.83889C3.06137 3.04994 1.64874 4.77125 0.814556 6.78515C-0.01963 8.79906 -0.237903 11.0151 0.187362 13.1531C0.612626 15.291 1.66231 17.2548 3.20369 18.7962C4.74506 20.3376 6.7089 21.3873 8.84685 21.8125C10.9848 22.2378 13.2008 22.0195 15.2147 21.1853C17.2286 20.3512 18.95 18.9385 20.161 17.1261C21.3721 15.3136 22.0185 13.1827 22.0185 11.0029C22.0185 8.07981 20.8573 5.27646 18.7904 3.20954C16.7234 1.14262 13.9201 -0.0185547 10.997 -0.0185547ZM10.997 21.2589C8.96268 21.2589 6.97408 20.6554 5.28293 19.5246C3.59178 18.3939 2.27411 16.7868 1.49672 14.9069C0.719339 13.0269 0.517186 10.9586 0.915853 8.96373C1.31452 6.96884 2.29608 5.13705 3.73629 3.70027C5.1765 2.26349 7.0106 1.28631 9.00645 0.892405C11.0023 0.498498 13.0701 0.705574 14.9482 1.48744C16.8263 2.26931 18.4302 3.59081 19.5569 5.28465C20.6836 6.9785 21.2824 8.96854 21.2776 11.0029C21.2743 13.7279 20.19 16.3403 18.2625 18.2666C16.3351 20.1929 13.722 21.2757 10.997 21.2773V21.2589Z" fill="white"/>
<path d="M10.9969 5.53516C10.6881 5.53516 10.3862 5.62673 10.1295 5.79829C9.8727 5.96986 9.67258 6.21371 9.5544 6.49902C9.43622 6.78432 9.4053 7.09826 9.46555 7.40114C9.52579 7.70401 9.6745 7.98222 9.89286 8.20058C10.1112 8.41894 10.3894 8.56764 10.6923 8.62789C10.9952 8.68813 11.3091 8.65721 11.5944 8.53904C11.8797 8.42086 12.1236 8.22074 12.2951 7.96398C12.4667 7.70721 12.5583 7.40533 12.5583 7.09652C12.5583 6.68242 12.3938 6.28527 12.101 5.99246C11.8082 5.69964 11.411 5.53516 10.9969 5.53516ZM10.9969 7.93537C10.831 7.93537 10.6688 7.88618 10.5309 7.79401C10.3929 7.70183 10.2854 7.57082 10.2219 7.41754C10.1584 7.26426 10.1418 7.09559 10.1742 6.93287C10.2065 6.77014 10.2864 6.62069 10.4038 6.50337C10.5211 6.38605 10.6705 6.30616 10.8333 6.27379C10.996 6.24143 11.1646 6.25803 11.3179 6.32152C11.4712 6.38501 11.6022 6.49252 11.6944 6.63047C11.7866 6.76842 11.8358 6.93061 11.8358 7.09652C11.8366 7.20719 11.8155 7.31693 11.7737 7.41941C11.7319 7.52189 11.6702 7.6151 11.5923 7.69365C11.5143 7.77219 11.4215 7.83453 11.3194 7.87707C11.2172 7.91961 11.1076 7.9415 10.9969 7.9415V7.93537Z" fill="white"/>
<path d="M10.9972 9.30664C10.6589 9.30826 10.3349 9.44379 10.0963 9.68361C9.8576 9.92343 9.72363 10.248 9.72363 10.5863V15.8521C9.74604 16.1755 9.89026 16.4782 10.1272 16.6993C10.3642 16.9204 10.6762 17.0434 11.0003 17.0434C11.3244 17.0434 11.6364 16.9204 11.8733 16.6993C12.1103 16.4782 12.2545 16.1755 12.2769 15.8521V10.5863C12.2753 10.2474 12.14 9.92288 11.9003 9.68324C11.6607 9.44359 11.3361 9.30825 10.9972 9.30664ZM11.5544 15.8521C11.54 15.9891 11.4754 16.1158 11.3731 16.2079C11.2708 16.3 11.138 16.351 11.0003 16.351C10.8626 16.351 10.7298 16.3 10.6275 16.2079C10.5252 16.1158 10.4606 15.9891 10.4461 15.8521V10.5863C10.4606 10.4494 10.5252 10.3227 10.6275 10.2306C10.7298 10.1385 10.8626 10.0875 11.0003 10.0875C11.138 10.0875 11.2708 10.1385 11.3731 10.2306C11.4754 10.3227 11.54 10.4494 11.5544 10.5863V15.8521Z" fill="white"/>
</g>
<defs>
<clipPath id="clip0_534_688">
<rect width="22" height="22" fill="white"/>
</clipPath>
</defs>
</svg>
