<svg width="24" height="13" viewBox="0 0 24 13" fill="none" xmlns="http://www.w3.org/2000/svg">
<path d="M22 11.1C22.0552 11.1 22.1 11.0552 22.1 11V3.67C22.1 3.63517 22.0819 3.60285 22.0522 3.58468C22.0224 3.56651 21.9854 3.56512 21.9544 3.581L15.5 6.88764L9.0456 3.581C9.0146 3.56512 8.97756 3.56651 8.94784 3.58468C8.91813 3.60285 8.9 3.63517 8.9 3.67V11C8.9 11.0552 8.94477 11.1 9 11.1H22ZM9 1.9C8.95376 1.9 8.91355 1.9317 8.90276 1.97667C8.89197 2.02163 8.91342 2.06813 8.95462 2.08911L15.4546 5.39911C15.4831 5.41363 15.5169 5.41363 15.5454 5.39911L22.0454 2.08911C22.0866 2.06813 22.108 2.02163 22.0972 1.97667C22.0865 1.9317 22.0462 1.9 22 1.9H9ZM9 0.1H22C23.0544 0.1 23.9 0.954902 23.9 2V11C23.9 12.0548 23.0548 12.9 22 12.9H9C7.9549 12.9 7.1 12.0544 7.1 11V2C7.1 0.955228 7.95523 0.1 9 0.1ZM4.9 11C4.9 11.1321 4.91751 11.2614 4.9343 11.3853C4.93496 11.3902 4.93563 11.3951 4.93629 11.4H1C0.503359 11.4 0.1 10.9949 0.1 10.5C0.1 10.0051 0.503359 9.6 1 9.6H4.9V11ZM3 1.6H4.93629C4.93563 1.6049 4.93496 1.60981 4.9343 1.61473C4.91751 1.73861 4.9 1.86787 4.9 2V3.4H3C2.50523 3.4 2.1 2.99477 2.1 2.5C2.1 2.00523 2.50523 1.6 3 1.6ZM1.1 6.5C1.1 6.00523 1.50523 5.6 2 5.6H4.9V7.4H2C1.50523 7.4 1.1 6.99477 1.1 6.5Z" fill="white" stroke="#D10307" stroke-width="0.2" stroke-linejoin="round"/>
</svg>
